# xmcd CD database file
#
# Track frame offsets:
#	150
#	17910
#	33752
#	49002
#	58902
#	70517
#	82702
#	101527
#	124672
#	142185
#
# Disc length: 2071 seconds
#
# Revision: 0
# Processed by: cddbd v1.5.2PL0 Copyright (c) Steve Scherf et al.
# Submitted via: CDex 1.70beta3
#
DISCID=7d08150a
DTITLE=Jimmy Wisner - Apperception
DYEAR=1960
DGENRE=Jazz
TTITLE0=Sometimes I Feel Like A Motherless Child
TTITLE1=Love Look Away
TTITLE2=My Old Frame
TTITLE3=Laura
TTITLE4=Apperception
TTITLE5=Baby Shoes
TTITLE6=Timeless
TTITLE7=I'll Remember April
TTITLE8=The Wind
TTITLE9=Stella By Starlight
EXTD=YEAR: 1960
EXTT0=
EXTT1=
EXTT2=
EXTT3=
EXTT4=
EXTT5=
EXTT6=
EXTT7=
EXTT8=
EXTT9=
PLAYORDER=
